<svg width="423" color="#00df30" height="389" viewBox="0 0 423 389" fill="none" xmlns="http://www.w3.org/2000/svg">
<path fill-rule="evenodd" clip-rule="evenodd" d="M322.082 1.93401C321.513 2.99801 321.047 9.74801 321.047 16.934V30H318.153C311.207 30 293.395 27.669 279.547 24.947C244.852 18.128 217.229 18.837 194.047 27.143C178.513 32.708 154.7 40.819 142.547 44.684L130.547 48.5L66.2602 49C10.5742 49.433 1.8462 49.701 1.0252 51C-0.478803 53.382 -0.262803 212.29 1.2472 213.8C2.1692 214.722 34.0572 215 138.69 215H274.934L276.49 212.777C277.838 210.853 278.047 205.018 278.047 169.277V128H283.437C290.827 128 303.622 125.453 313.125 122.09L321.047 119.287V131.952C321.047 141.31 321.418 145.125 322.466 146.559C323.831 148.426 325.69 148.511 371.438 148.778C418.382 149.053 419.017 149.03 421.061 146.986C423.117 144.93 423.129 144.486 422.839 82.208C422.548 19.766 422.538 19.483 420.345 15.384C416.881 8.909 413.414 5.362 407.827 2.578L402.654 0H362.886C324.591 0 323.079 0.0720057 322.082 1.93401ZM405.706 12.571C413.394 18.718 413.044 15.467 413.045 80.75L413.047 139H372.047H331.047V73.952V8.905L366.456 9.202L401.865 9.5L405.706 12.571ZM273.047 33.497C299.36 39.013 308.095 39.555 319.297 36.364C320.941 35.895 321.047 38.079 321.047 72.345V108.825L314.297 111.357C294.105 118.93 275.092 120.744 259.392 116.594C256.556 115.844 248.906 112.948 242.392 110.158C226.865 103.509 220.677 101.996 209.087 102.017C196.78 102.04 189.705 103.606 172.547 110.109C159.692 114.981 157.852 115.417 150.047 115.443C142.727 115.468 140.836 115.099 136.427 112.785C130.785 109.824 126.047 104.884 126.047 101.962C126.047 96.82 132.848 94.243 162.749 88.054C186.564 83.125 191.854 81.796 205.047 77.431C217.556 73.293 228.004 68.07 235.53 62.191C242.075 57.08 243.479 53.578 240.087 50.831C237.987 49.131 235.096 48.994 199.686 48.921C171.797 48.863 162.353 48.561 164.547 47.795C166.197 47.22 176.25 43.661 186.887 39.887C211.508 31.152 218.74 29.928 242.547 30.469C256.981 30.796 263.023 31.396 273.047 33.497ZM216.258 62.629C212.249 64.53 204.862 67.427 199.841 69.067L190.713 72.05L119.619 72.013C39.5932 71.972 44.7052 71.468 43.8022 79.481C42.8132 88.255 36.2682 94.693 26.5472 96.454C24.3472 96.853 21.9852 97.644 21.2972 98.212C20.3432 99 20.0472 107.024 20.0472 132.051C20.0472 167.736 20.0882 168 25.6512 168C28.9642 168 34.9792 170.598 37.9152 173.298C40.8752 176.019 43.9962 182.597 44.0252 186.179C44.0762 192.356 38.2762 192 138.996 192C211.25 192 231.012 191.734 231.786 190.75C232.327 190.063 233.036 187.768 233.361 185.651C234.761 176.551 241.703 169.365 250.131 168.292C252.56 167.983 255.11 167.286 255.797 166.743C256.722 166.012 257.047 160.573 257.047 145.81C257.047 127.286 257.172 125.902 258.797 126.379C259.759 126.662 262.235 127.192 264.297 127.558L268.047 128.223V167.115V206.008L138.797 205.754L9.5472 205.5L9.2912 132.25L9.0342 59L116.291 59.087L223.547 59.174L216.258 62.629ZM140.047 82.993C138.672 83.452 134.974 84.598 131.829 85.541C121.068 88.765 114.687 96.972 116.75 104.934C117.522 107.914 117.283 108.712 114.81 111.416C109.335 117.401 107.546 122.6 107.554 132.5C107.56 139.947 107.956 142.241 109.847 145.795C113.367 152.407 118.665 157.665 124.886 160.72C129.74 163.103 131.759 163.498 139.047 163.486C146.313 163.474 148.288 163.083 152.655 160.791C159.324 157.291 166.457 149.292 168.563 142.951C170 138.625 170.549 129.888 169.783 123.555C169.589 121.957 171.3 120.93 179.395 117.788C191.237 113.192 205.188 110.56 213.547 111.346C220.57 112.006 229.473 114.8 240.297 119.741L248.047 123.278V140.981V158.683L244.249 159.821C235.644 162.399 228.427 169.301 225.533 177.718L224.233 181.5L138.877 181.756L53.5202 182.011L51.6862 176.845C49.3072 170.149 41.8042 162.706 34.9932 160.287L30.0152 158.519L30.2812 132.148L30.5472 105.776L35.6872 103.859C42.2512 101.411 49.2012 94.151 51.6912 87.14L53.5162 82L98.0322 82.079C123.281 82.124 141.465 82.519 140.047 82.993ZM349.672 84.469C341.041 87.545 335.377 96.673 336.278 106.052C337.575 119.55 352.981 128.156 364.932 122.059C371.805 118.552 377.021 110.609 377.041 103.616C377.065 95.548 369.707 86.159 361.798 84.168C356.006 82.709 354.504 82.747 349.672 84.469ZM363.647 96.4C367.658 100.411 368.123 104.723 365.081 109.712C361.6 115.421 352.97 115.807 348.297 110.462C345.513 107.277 345.266 100.513 347.819 97.38C352.319 91.859 358.71 91.463 363.647 96.4ZM137.442 123.688C140.868 124.864 145.41 125.418 151.251 125.373L159.955 125.306L160.601 128.245C162.278 135.881 158.206 145.536 151.245 150.428C145.749 154.291 135.491 155.253 129.601 152.458C122.297 148.993 117.339 141.947 116.928 134.452C116.545 127.46 116.99 125.481 120.021 120.702L122.996 116.011L127.666 118.974C130.235 120.603 134.634 122.724 137.442 123.688ZM68.0672 118.752C60.4672 122.57 57.5472 133.218 62.0852 140.561C64.8912 145.102 71.9372 148.428 76.8302 147.521C85.2772 145.955 90.0472 140.262 90.0472 131.747C90.0472 123.72 83.2132 117.003 75.0472 117.003C73.1222 117.003 69.9812 117.79 68.0672 118.752ZM195.265 118.663C186.214 123.124 184.388 136.174 191.82 143.276C193.32 144.709 196.624 146.435 199.162 147.112C203.401 148.242 204.174 148.145 208.662 145.921C217.281 141.649 220.476 131.106 215.278 124.087C210.325 117.396 202.266 115.213 195.265 118.663ZM79.7532 129.674C80.9982 131.574 81.0972 132.595 80.2232 134.513C78.0112 139.367 70.7252 138.55 69.4072 133.3C68.8832 131.212 69.2922 130.186 71.3552 128.412C74.4612 125.74 77.4722 126.193 79.7532 129.674ZM206.797 128.831C211.053 134.113 203.356 141.166 198.564 136.375C196.177 133.987 196.964 128.835 199.94 127.359C202.625 126.028 204.939 126.525 206.797 128.831ZM380.959 191.445C378.435 192.141 373.671 194.149 370.372 195.907C365.45 198.531 363.045 199.156 356.961 199.393C351.878 199.59 347.975 200.396 344.547 201.954C340.979 203.576 337.828 204.198 333.547 204.123C329.68 204.055 325.592 204.757 322.047 206.095C319.022 207.238 313.204 208.555 309.119 209.022C291.055 211.089 280.113 220.831 246.809 264.5C241.562 271.38 241.334 271.54 233.509 273.863C227.466 275.657 222.896 276.26 214.547 276.363C202.2 276.517 199.946 275.944 181.397 267.936C175.264 265.288 166.846 262.42 162.689 261.561C147.212 258.364 124.64 260.406 108.563 266.458L102.199 268.853L101.873 255.388C101.616 244.763 101.231 241.724 100.047 240.977C99.1702 240.423 82.3602 240.033 59.5472 240.037C23.9442 240.043 20.1992 240.203 16.5472 241.867C10.5952 244.581 6.2722 248.648 3.2482 254.38L0.5472 259.5L0.261205 322.214C-0.0207954 384.153 0.00120473 384.954 2.0112 386.964C4.0012 388.954 5.10819 389 50.8562 389C89.6852 389 97.9962 388.758 99.6062 387.582C101.344 386.312 101.569 384.732 101.757 372.456C101.872 364.916 102.162 358.552 102.402 358.312C103.394 357.32 128.604 360.322 142.547 363.093C162.739 367.106 176.005 368.348 191.547 367.68C209.143 366.924 218.001 365.028 238.834 357.556C248.576 354.062 263.297 349.101 271.547 346.532C279.797 343.962 290.09 340.758 294.419 339.411C309.568 334.697 325.636 325.298 334.715 315.842C337.342 313.105 349.682 292.832 368.096 261C405.347 196.603 403.603 199.939 401.897 196.348C399.193 190.653 390.882 188.707 380.959 191.445ZM390.042 203.733C388.831 205.786 375.066 229.562 359.452 256.568C340.077 290.082 329.713 307.024 326.806 309.934C316.799 319.95 304.106 326.565 282.547 332.997C264.513 338.378 245.411 344.732 231.547 349.962C215.458 356.032 209.853 357.049 189.047 357.672C169.433 358.261 171.528 358.482 135.547 352.026C129.497 350.941 119.485 349.747 113.297 349.374L102.047 348.695V313.942V279.189L110.408 276.164C135.077 267.238 159.131 267.493 177.846 276.88C192.714 284.337 206.926 287.427 220.047 286.054C231.429 284.863 236.217 283.588 251.547 277.664C263.133 273.186 265.417 272.633 272.547 272.575C279.377 272.519 281.389 272.922 286.305 275.332C293.044 278.636 297.557 283.832 296.69 287.288C295.379 292.509 286.31 295.208 255.547 299.532C225.675 303.73 209.184 308.723 198.554 316.786C192.982 321.012 192.041 323.231 194.614 326.074C196.989 328.698 198.444 328.511 203.679 324.909C214.867 317.212 230.973 312.441 257.547 308.953C293.55 304.228 304.096 299.677 306.504 287.827C307.567 282.59 343.621 234.635 359.58 217.229C369.8 206.084 379.748 200.152 388.396 200.047L392.245 200L390.042 203.733ZM351.364 216.617C346.515 220.806 340.574 226.079 338.163 228.334C334.146 232.093 312.17 260.691 305.57 270.75C304.036 273.087 302.475 275 302.101 275C301.727 275 300.128 273.65 298.546 271.999L295.672 268.999L298.025 265.749C307.921 252.089 323.791 232.383 331.221 224.532C341.134 214.059 349.293 209 356.274 209H360.181L351.364 216.617ZM333.88 213.934C333.697 214.448 327.912 219.541 321.024 225.251C310.13 234.284 307.079 237.538 297.556 250.281C287.564 263.653 286.39 264.876 284.079 264.329C282.686 264 281.024 263.453 280.384 263.115C278.938 262.351 293.655 243.189 305.623 230.254C314.627 220.522 320.421 216.405 327.976 214.367C333.706 212.822 334.292 212.779 333.88 213.934ZM309.047 219.404C309.047 219.627 302.979 225.039 295.563 231.431C285.834 239.818 279.994 245.807 274.591 252.941C268.741 260.667 266.426 262.978 264.004 263.509C262.299 263.884 260.647 263.933 260.332 263.619C259.53 262.817 277.576 240.706 286.297 231.805C293.571 224.382 302.164 219 306.743 219C308.01 219 309.047 219.182 309.047 219.404ZM92.0472 314V379H51.0472H10.0472V320.45C10.0472 271.996 10.2902 261.435 11.4582 259.2C13.3822 255.517 17.9252 251.466 21.5472 250.204C23.3862 249.562 37.6042 249.127 58.2972 249.079L92.0472 249V314ZM58.5472 265.902C47.9062 270.844 43.2842 282.437 47.9432 292.5C53.8892 305.344 69.3242 308.842 79.7312 299.704C88.9522 291.608 89.3582 279.048 80.6792 270.368C74.3682 264.058 66.1072 262.39 58.5472 265.902ZM74.7382 277.427C78.8052 282.156 77.2892 290.789 71.9022 293.575C64.1942 297.561 56.1132 292.763 56.0692 284.173C56.0512 280.668 56.6252 279.268 59.0932 276.8C61.8842 274.009 62.5692 273.796 67.2842 274.249C71.2662 274.631 72.9512 275.35 74.7382 277.427Z" fill="#00DF30"/>
</svg>
