<svg width="50" height="50" viewBox="0 0 219 200" fill="none" xmlns="http://www.w3.org/2000/svg">
<g clip-path="url(#clip0_108_20)">
<path d="M87.7098 171.783C47.99 171.783 16.1061 140.71 16.1061 100.449C16.1061 60.1891 47.99 29.1158 87.7098 29.1158C127.43 29.1158 159.313 60.1891 159.313 100.449C159.313 140.71 127.43 171.783 87.7098 171.783ZM87.7098 132.333C105.273 132.333 118.783 119.634 118.783 100.449C118.783 81.2649 105.273 68.5654 87.7098 68.5654C70.1466 68.5654 56.6365 81.2649 56.6365 100.449C56.6365 119.634 70.1466 132.333 87.7098 132.333Z" fill="black"/>
<path d="M144.525 171.783C103.454 171.783 72.9215 140.71 72.9215 100.449C72.9215 60.1891 103.454 29.1158 144.525 29.1158C170.735 29.1158 193.972 42.8962 205.591 63.7018L170.194 84.2372C165.601 74.7801 155.874 69.1058 143.985 69.1058C126.422 69.1058 113.452 81.8053 113.452 100.449C113.452 119.093 126.422 131.793 143.985 131.793C155.874 131.793 165.871 126.119 170.194 116.661L205.591 136.927C193.972 158.003 171.005 171.783 144.525 171.783Z" fill="#00D33F"/>
<path fill-rule="evenodd" clip-rule="evenodd" d="M16.1561 101.471H56.6871C56.7531 92.1511 59.7249 84.5213 65.6026 78.5821C71.5471 72.5754 78.9326 69.5721 87.7593 69.5721C96.5859 69.5721 103.971 72.5754 109.916 78.5821C115.794 84.5213 118.765 92.1511 118.831 101.471H159.362C159.289 81.5871 152.354 64.6743 138.557 50.733C124.687 36.7175 107.754 29.7097 87.7593 29.7097C67.7643 29.7097 50.8316 36.7175 36.9612 50.733C23.1643 64.6743 16.2293 81.5871 16.1561 101.471Z" fill="black"/>
</g>
<defs>
<clipPath id="clip0_108_20">
<rect width="219" height="199.38" fill="white" transform="translate(0 0.309814)"/>
</clipPath>
</defs>
</svg>
